<svg xmlns="http://www.w3.org/2000/svg" width="830" height="310" viewBox="0 0 830 310" role="img" aria-labelledby="title desc"><title id="title">Aidash logo</title><desc id="desc">Original Aidash identity. Aida is a proper name. A mesh-like A and a separate acute accent represent Aida + mesh and AI + ´.</desc><g transform="translate(36 45)"><g fill="none" stroke="#F9FBF9" stroke-width="18" stroke-linecap="round" stroke-linejoin="round">
        <path d="M32 190 L104 46 L176 190"/>
        <path d="M68 118 H140 L104 190 Z"/>
        </g><path d="M167 56 L185 20" fill="none" stroke="#FF9277" stroke-width="18" stroke-linecap="round"/></g><g fill="#F9FBF9"><path d="M13 0H297L419 356H997L1116 0H1407L877 1490H545ZM493 573 565 783C610 920 655 1063 711 1251C767 1063 811 920 855 783L925 573Z" transform="translate(290.0000 220) scale(0.07714844 -0.07714844)"/><path d="M112 0H364V1056H112ZM238 1213C324 1213 389 1275 389 1357C389 1438 324 1500 238 1500C152 1500 87 1438 87 1357C87 1275 152 1213 238 1213Z" transform="translate(395.7508 220) scale(0.07714844 -0.07714844)"/><path d="M520 -21C658 -21 774 39 840 161H842V0H1090V1490H838V906H836C768 1022 655 1077 518 1077C247 1077 63 854 63 529C63 200 244 -21 520 -21ZM579 190C423 190 318 310 318 529C318 747 423 868 579 868C744 868 852 734 852 529C852 323 744 190 579 190Z" transform="translate(428.6734 220) scale(0.07714844 -0.07714844)"/><path d="M434 -17C606 -17 695 55 745 149H749V0H997V720C997 940 834 1077 559 1077C283 1077 111 938 99 728H342C349 817 431 881 554 881C675 881 747 817 747 727V719C747 647 680 644 484 622C266 599 69 540 69 300C69 89 224 -17 434 -17ZM496 170C386 170 315 219 315 302C315 398 407 437 515 453C619 469 717 485 748 505V391C748 268 661 170 496 170Z" transform="translate(517.6059 220) scale(0.07714844 -0.07714844)"/><path d="M526 -25C787 -25 974 105 974 311C974 466 877 558 668 602L478 641C390 660 338 699 338 762C338 834 406 890 517 890C632 890 709 821 711 727H948C942 944 767 1079 511 1079C253 1079 86 948 86 754C86 594 192 491 394 449L574 412C663 393 718 356 718 292C718 217 644 164 522 164C396 164 322 223 311 326H62C78 99 269 -25 526 -25Z" transform="translate(599.2863 220) scale(0.07714844 -0.07714844)"/><path d="M364 597C364 777 463 856 595 856C730 856 808 775 808 620V0H1061V660C1061 931 905 1077 684 1077C542 1077 436 1016 364 901V1490H112V0H364Z" transform="translate(675.2578 220) scale(0.07714844 -0.07714844)"/></g></svg>